Coordinates
version=1
nRows=30
nColumns=38
inDegrees=no

Units are S.I. units (second, meters, Newtons, ...)
If the header above contains a line with 'inDegrees', this indicates whether rotational values are in degrees (yes) or radians (no).

endheader
time	pelvis_tilt	pelvis_list	pelvis_rotation	pelvis_tx	pelvis_ty	pelvis_tz	hip_flexion_r	hip_adduction_r	hip_rotation_r	knee_angle_r	ankle_angle_r	subtalar_angle_r	mtp_angle_r	hip_flexion_l	hip_adduction_l	hip_rotation_l	knee_angle_l	ankle_angle_l	subtalar_angle_l	mtp_angle_l	lumbar_extension	lumbar_bending	lumbar_rotation	arm_flex_r	arm_add_r	arm_rot_r	elbow_flex_r	pro_sup_r	wrist_flex_r	wrist_dev_r	arm_flex_l	arm_add_l	arm_rot_l	elbow_flex_l	pro_sup_l	wrist_flex_l	wrist_dev_l
0.55	0.471065	1.43609	-1.9503	0.758876	0.708831	0.956105	0.460633	-0.22558	-0.253065	0.714624	0.038349	0	0	-0.219997	0.072943	-0.0799348	0.237857	0.249735	0	0	-0.210426	-0.0490862	-0.120842	-0.125391	-0.132278	0.0723177	0.45715	1.14048	0	0	0.0836911	-0.288908	0.41612	0.628869	0.856029	0	0
0.56	0.467029	1.43566	-1.94556	0.758755	0.698222	0.954635	0.458754	-0.223601	-0.266569	0.666497	0.0493362	0	0	-0.239909	0.0714318	-0.0768702	0.225984	0.255463	0	0	-0.212406	-0.0473102	-0.122015	-0.125092	-0.13175	0.0749813	0.453002	1.1392	0	0	0.0961728	-0.286413	0.40989	0.62757	0.865814	0	0
0.57	0.462807	1.43573	-1.94063	0.75855	0.687451	0.953004	0.456804	-0.221055	-0.281617	0.619199	0.0605622	0	0	-0.259383	0.0693817	-0.074933	0.214382	0.261217	0	0	-0.213624	-0.0452703	-0.12319	-0.125393	-0.131233	0.077293	0.449748	1.13862	0	0	0.107406	-0.283568	0.401777	0.626657	0.875892	0	0
0.58	0.457924	1.43669	-1.93525	0.75823	0.676546	0.951183	0.455197	-0.217517	-0.297287	0.572877	0.0718719	0	0	-0.277679	0.0667219	-0.0739847	0.203587	0.267142	0	0	-0.213812	-0.0428302	-0.124147	-0.126216	-0.130736	0.0791048	0.447513	1.13772	0	0	0.11754	-0.280292	0.392355	0.626126	0.88919	0	0
0.59	0.453118	1.43867	-1.92983	0.757823	0.665536	0.949197	0.454078	-0.213034	-0.313289	0.527637	0.083055	0	0	-0.294167	0.0633766	-0.0739342	0.194412	0.273551	0	0	-0.212875	-0.0400649	-0.125292	-0.126823	-0.129911	0.0801398	0.444421	1.13763	0	0	0.126586	-0.276911	0.382854	0.626544	0.898542	0	0
0.6	0.450068	1.44162	-1.92595	0.75734	0.654426	0.947064	0.453707	-0.207814	-0.329063	0.483996	0.0940908	0	0	-0.308561	0.0595467	-0.0749811	0.187352	0.280531	0	0	-0.210769	-0.037158	-0.126794	-0.127912	-0.12903	0.0806166	0.44208	1.13912	0	0	0.13447	-0.273806	0.373651	0.627706	0.904715	0	0
0.61	0.457479	1.446	-1.93256	0.756733	0.643201	0.944687	0.455976	-0.202899	-0.342955	0.443935	0.106037	0	0	-0.31958	0.0562498	-0.0766431	0.183187	0.288003	0	0	-0.206462	-0.0353169	-0.128456	-0.129422	-0.12772	0.0811492	0.439725	1.14077	0	0	0.140896	-0.272012	0.36744	0.630458	0.908231	0	0
0.62	0.455517	1.4506	-1.92948	0.756004	0.631835	0.942335	0.456669	-0.195812	-0.355592	0.404253	0.116604	0	0	-0.329652	0.0511576	-0.0785701	0.181521	0.295725	0	0	-0.202392	-0.0322124	-0.130584	-0.13047	-0.126244	0.0805894	0.437119	1.14231	0	0	0.146321	-0.269673	0.358827	0.633208	0.912882	0	0
0.63	0.444834	1.45543	-1.91732	0.755136	0.620324	0.940013	0.455985	-0.186692	-0.365499	0.36526	0.125316	0	0	-0.338172	0.0444987	-0.0811685	0.183233	0.303702	0	0	-0.198515	-0.0280999	-0.133219	-0.131186	-0.124439	0.0781614	0.434501	1.14327	0	0	0.150649	-0.267228	0.348961	0.636363	0.919243	0	0
0.64	0.423876	1.46001	-1.89436	0.754142	0.608642	0.937786	0.453284	-0.175777	-0.372072	0.327189	0.13161	0	0	-0.345484	0.0362749	-0.0846748	0.188666	0.311873	0	0	-0.195274	-0.0230694	-0.136449	-0.131676	-0.122217	0.073691	0.431922	1.14349	0	0	0.153881	-0.265093	0.339449	0.640009	0.927012	0	0
0.65	0.39212	1.46371	-1.85977	0.753079	0.596769	0.935725	0.447996	-0.163733	-0.375217	0.290694	0.135648	0	0	-0.352622	0.0265041	-0.0887735	0.197113	0.320055	0	0	-0.193203	-0.0172986	-0.140428	-0.13225	-0.119737	0.0689283	0.429342	1.14399	0	0	0.156318	-0.263219	0.330454	0.643997	0.935896	0	0
0.66	0.352079	1.4661	-1.81613	0.751977	0.584652	0.933837	0.441262	-0.151971	-0.376885	0.259826	0.13847	0	0	-0.360154	0.0156875	-0.0935418	0.20774	0.327513	0	0	-0.192386	-0.0111736	-0.145057	-0.133163	-0.117241	0.0642281	0.427433	1.14506	0	0	0.157881	-0.261616	0.322303	0.648446	0.945499	0	0
0.67	0.311175	1.46727	-1.77116	0.750845	0.572257	0.932083	0.435903	-0.142546	-0.379746	0.240881	0.141717	0	0	-0.367872	0.00458347	-0.0987098	0.220393	0.334028	0	0	-0.192197	-0.00544059	-0.150379	-0.134247	-0.114674	0.0593371	0.426218	1.14613	0	0	0.158158	-0.260624	0.315261	0.653658	0.955181	0	0
0.68	0.275053	1.46764	-1.73052	0.749723	0.559593	0.930441	0.433613	-0.13651	-0.385122	0.236744	0.144903	0	0	-0.375072	-0.00642388	-0.103701	0.235392	0.339641	0	0	-0.192141	-0.000409637	-0.155988	-0.135927	-0.112076	0.054397	0.425016	1.14721	0	0	0.15759	-0.260074	0.309897	0.659049	0.963955	0	0
0.69	0.245055	1.46758	-1.69557	0.748644	0.546645	0.928895	0.434509	-0.133754	-0.392033	0.246703	0.14607	0	0	-0.381493	-0.0174465	-0.108317	0.252514	0.343939	0	0	-0.1917	0.00398367	-0.162033	-0.138251	-0.109613	0.0497863	0.423727	1.1483	0	0	0.155771	-0.259962	0.30657	0.664733	0.971627	0	0
0.7	0.219626	1.46758	-1.66469	0.74761	0.533398	0.927418	0.437502	-0.133122	-0.397995	0.266935	0.14404	0	0	-0.386565	-0.028646	-0.112287	0.271786	0.346541	0	0	-0.190275	0.00804365	-0.168805	-0.14123	-0.107486	0.0461562	0.422449	1.1493	0	0	0.15238	-0.260213	0.305473	0.670488	0.979008	0	0
0.71	0.192717	1.46797	-1.63181	0.746587	0.519809	0.92601	0.440524	-0.132511	-0.40097	0.292098	0.139713	0	0	-0.389881	-0.0407625	-0.115854	0.29347	0.347341	0	0	-0.18748	0.0124812	-0.176121	-0.145118	-0.105838	0.0436761	0.42158	1.1503	0	0	0.147385	-0.26057	0.305463	0.676041	0.985922	0	0
0.72	0.163015	1.46905	-1.59554	0.745576	0.50583	0.924672	0.442838	-0.131259	-0.401391	0.319916	0.135139	0	0	-0.391159	-0.0538853	-0.11837	0.317524	0.346388	0	0	-0.182782	0.0172717	-0.184054	-0.150299	-0.104585	0.0411937	0.421794	1.15123	0	0	0.140452	-0.261085	0.305643	0.681572	0.991696	0	0
0.73	0.133699	1.47086	-1.55887	0.744591	0.491442	0.923388	0.443776	-0.129608	-0.400034	0.348094	0.132144	0	0	-0.390185	-0.0675478	-0.119594	0.343897	0.342849	0	0	-0.175909	0.0219017	-0.192835	-0.156728	-0.103547	0.0388647	0.421753	1.15218	0	0	0.131702	-0.26167	0.307143	0.686194	0.997283	0	0
0.74	0.110108	1.47349	-1.52673	0.743625	0.476606	0.922094	0.443108	-0.128365	-0.398805	0.373868	0.131251	0	0	-0.386609	-0.0813537	-0.119092	0.373015	0.336409	0	0	-0.166566	0.025589	-0.202719	-0.164687	-0.102534	0.036338	0.422302	1.15319	0	0	0.121281	-0.262404	0.309733	0.68968	1.00318	0	0
0.75	0.0880695	1.47676	-1.4952	0.742629	0.461447	0.920836	0.440516	-0.126648	-0.399084	0.392841	0.124908	0	0	-0.38009	-0.0957906	-0.117101	0.405623	0.326848	0	0	-0.155208	0.028649	-0.213113	-0.174177	-0.101468	0.0334158	0.42399	1.15392	0	0	0.109614	-0.263283	0.312716	0.691901	1.00906	0	0
0.76	0.141719	1.48475	-1.54039	0.740775	0.445309	0.918519	0.462396	-0.165927	-0.484112	0.467931	0.126824	0	0	-0.367057	-0.1043	-0.115083	0.442312	0.314891	0	0	-0.135685	0.0207811	-0.222171	-0.189017	-0.0972351	0.0289023	0.427258	1.155	0	0	0.0930081	-0.269484	0.319865	0.698568	1.01667	0	0
0.77	0.128665	1.49036	-1.52002	0.739345	0.430378	0.917534	0.466132	-0.168955	-0.489736	0.488954	0.0925082	0	0	-0.350983	-0.116813	-0.109163	0.484383	0.295433	0	0	-0.122479	0.0218829	-0.228731	-0.199197	-0.095484	0.023695	0.429926	1.1551	0	0	0.0818531	-0.270418	0.324229	0.698246	1.02254	0	0
0.78	-0.050813	1.49243	-1.33919	0.737751	0.417047	0.918183	0.453083	-0.119316	-0.396985	0.453807	0.0413925	0	0	-0.33013	-0.140116	-0.108177	0.535462	0.268895	0	0	-0.116828	0.0396406	-0.227973	-0.202155	-0.0975231	0.0184809	0.430905	1.15458	0	0	0.0782557	-0.263063	0.322672	0.687434	1.02972	0	0
0.79	-0.216184	1.49276	-1.17771	0.735218	0.403059	0.918548	0.460595	-0.104034	-0.382891	0.482552	0.0276846	0	0	-0.307266	-0.161155	-0.111684	0.590242	0.235884	0	0	-0.109937	0.0535163	-0.22109	-0.208041	-0.0985349	0.0131766	0.433996	1.15397	0	0	0.0721279	-0.257531	0.320281	0.679863	1.03788	0	0
0.8	-0.383601	1.49686	-1.01465	0.732859	0.389247	0.918772	0.477402	-0.093163	-0.368778	0.520385	0.0251044	0	0	-0.272768	-0.177725	-0.108655	0.652303	0.194484	0	0	-0.0969006	0.0643705	-0.213902	-0.215017	-0.100049	0.00876047	0.438013	1.1524	0	0	0.0643854	-0.25194	0.319032	0.672069	1.04753	0	0
0.81	-0.526573	1.49811	-0.875111	0.730778	0.375609	0.919443	0.487893	-0.0827975	-0.355701	0.550325	0.0183327	0	0	-0.237636	-0.190052	-0.0970888	0.715393	0.147555	0	0	-0.0864082	0.0734451	-0.207752	-0.221427	-0.102291	0.00776558	0.442836	1.14945	0	0	0.0561681	-0.24754	0.320665	0.666627	1.05155	0	0
0.82	-0.664798	1.49767	-0.739382	0.728801	0.362206	0.920246	0.492764	-0.0711771	-0.346507	0.570095	0.0071706	0	0	-0.199239	-0.200943	-0.0816049	0.781288	0.0971284	0	0	-0.0763588	0.0822068	-0.202663	-0.228375	-0.10542	0.00952359	0.450606	1.14449	0	0	0.0473307	-0.244329	0.325324	0.663121	1.04906	0	0
0.83	-0.80822	1.49621	-0.59821	0.726745	0.349078	0.920969	0.493189	-0.0583041	-0.343271	0.580345	-0.00259296	0	0	-0.156841	-0.211324	-0.0650227	0.849371	0.0449138	0	0	-0.0658201	0.0908577	-0.198063	-0.236274	-0.109221	0.0134174	0.462269	1.13736	0	0	0.0374947	-0.24262	0.332654	0.663096	1.03846	0	0
0.84	-0.948294	1.49346	-0.460416	0.724627	0.336266	0.921606	0.489247	-0.0448604	-0.34597	0.582499	-0.00659636	0	0	-0.111829	-0.220956	-0.0480921	0.917689	-0.00799593	0	0	-0.0554843	0.099416	-0.193167	-0.245377	-0.113607	0.0188011	0.478253	1.12685	0	0	0.0274438	-0.242234	0.342379	0.665915	1.01964	0	0
